<svg id="Layer_1" data-name="Layer 1" xmlns="http://www.w3.org/2000/svg" viewBox="0 0 299 128"><defs><style>.cls-1{fill:#0db04b;}.cls-2{fill:#f27226;}.cls-3{fill:#0e69af;}.cls-4{fill:#fff;}</style></defs><path class="cls-1" d="M132.09,31.79a18.8,18.8,0,0,0-17.43,12.49c-.14.37-.62,1.91-.62,1.91L103,93.84h25.27c8.68,0,16-6.27,18.11-14.71h0l10.93-47.35Z"/><path class="cls-2" d="M90,18A18.58,18.58,0,0,0,72.19,31.55c-.16.58-.3,1.18-.41,1.79L54.63,107.63H79.88a18.58,18.58,0,0,0,18-14.09h0L115.29,18Z"/><path class="cls-3" d="M41.59,31.79A18.86,18.86,0,0,0,23.88,45.08l-.16.52-.42,1.66L12.55,93.84H38.43a18.21,18.21,0,0,0,17-12.32l1-4.43,10.46-45.3Z"/><path class="cls-4" d="M36.87,47.26v0h-.39a7.85,7.85,0,0,0-5.06,1.91,8.46,8.46,0,0,0-2.83,3.94h0l-5.8,25.18h.33a8,8,0,0,0,5.11-1.93,8.2,8.2,0,0,0,3-4.65l1.27-5.47H44a8.13,8.13,0,0,0,5.11-1.94,8.23,8.23,0,0,0,3-4.64l.07-.33H34.06l1.21-5.19,15.66,0A7.91,7.91,0,0,0,56,52.25a8.42,8.42,0,0,0,2.95-4.64l.08-.33Z"/><path class="cls-4" d="M100.81,48.79a5.25,5.25,0,0,0-3.87-1.5l-22.1,0-7.14,31h0v0H68a8,8,0,0,0,5.11-1.93,8.25,8.25,0,0,0,3-4.65l1.29-5.53,15.3,0a7.24,7.24,0,0,0,5-1.47,9.64,9.64,0,0,0,3.09-5.07l1.34-5.75a6.62,6.62,0,0,0,.16-1.41A5,5,0,0,0,100.81,48.79Zm-6.9,10.57L79,59.34l1.21-5.2,14.91,0Z"/><path class="cls-4" d="M145.78,48.81a5.18,5.18,0,0,0-3.85-1.51H118.6l0,.22a6.92,6.92,0,0,0-.17,1.37,5.08,5.08,0,0,0,1.44,3.79,5.18,5.18,0,0,0,3.85,1.5h4.88L123,78.33h.33a7.93,7.93,0,0,0,5.11-1.93,8.22,8.22,0,0,0,3-4.65l4.07-17.56H147l0-.22a6.62,6.62,0,0,0,.16-1.41A5,5,0,0,0,145.78,48.81Z"/><path class="cls-3" d="M150.31,88.49a5.35,5.35,0,1,1,5.34,5.34,5.35,5.35,0,0,1-5.34-5.34m9.39,0a4.05,4.05,0,1,0-4,4.31,4.11,4.11,0,0,0,4-4.31m-6.1-3h2.25c1.45,0,2.24.5,2.24,1.78a1.51,1.51,0,0,1-1.59,1.62l1.63,2.65H157l-1.56-2.61h-.69v2.61H153.6ZM154.72,88h1c.66,0,1.24-.1,1.24-.9s-.65-.83-1.23-.83h-1Z"/><path class="cls-3" d="M180.76,57.43V78.21H177V57.43h-5.51V54.3h14.73v3.13Z"/><path class="cls-3" d="M202.92,69.22,191.1,70.88q.56,4.82,5.45,4.82a10.28,10.28,0,0,0,4.92-1.09l1.06,2.71a13.53,13.53,0,0,1-6.21,1.25,8.36,8.36,0,0,1-6.47-2.51,9.55,9.55,0,0,1-2.28-6.77,10,10,0,0,1,2.14-6.67A7.32,7.32,0,0,1,195.59,60,7.07,7.07,0,0,1,201,62.16a8.09,8.09,0,0,1,2,5.71C203,68.46,203,68.92,202.92,69.22Zm-3.43-1.91c0-3.08-1.34-4.63-4-4.63a4.07,4.07,0,0,0-3.34,1.52,6.67,6.67,0,0,0-1.32,4.3Z"/><path class="cls-3" d="M205.53,78.21V52.28h3.64V78.21Z"/><path class="cls-3" d="M227.1,69.22l-11.82,1.66c.37,3.21,2.19,4.82,5.44,4.82a10.35,10.35,0,0,0,4.93-1.09l1,2.71a13.47,13.47,0,0,1-6.21,1.25A8.37,8.37,0,0,1,214,76.06a9.55,9.55,0,0,1-2.28-6.77,10,10,0,0,1,2.15-6.67A7.29,7.29,0,0,1,219.77,60a7,7,0,0,1,5.41,2.12,8.09,8.09,0,0,1,1.95,5.71C227.13,68.46,227.12,68.92,227.1,69.22Zm-3.44-1.91c0-3.08-1.34-4.63-4-4.63a4,4,0,0,0-3.33,1.52A6.73,6.73,0,0,0,215,68.5Z"/><path class="cls-3" d="M241.33,77.35a8,8,0,0,1-4.56,1.22,7.15,7.15,0,0,1-5.38-2.21A9.78,9.78,0,0,1,229,69.29a9.63,9.63,0,0,1,2.44-7A7.12,7.12,0,0,1,236.77,60a8,8,0,0,1,4.56,1.22l-1.19,2.61a4.83,4.83,0,0,0-2.9-.85,3.9,3.9,0,0,0-3.17,1.48,7.26,7.26,0,0,0-1.39,4.76A7.14,7.14,0,0,0,234.1,74a3.89,3.89,0,0,0,3.14,1.52,4.77,4.77,0,0,0,2.9-.86Z"/><path class="cls-3" d="M256.42,75.9a7.66,7.66,0,0,1-11.62,0,10.28,10.28,0,0,1-2-6.61,10.28,10.28,0,0,1,2-6.61,7.71,7.71,0,0,1,11.62,0,10.22,10.22,0,0,1,2,6.61A10.22,10.22,0,0,1,256.42,75.9Zm-2.67-11.27a3.73,3.73,0,0,0-6.27,0,8.65,8.65,0,0,0-1.06,4.63,8.59,8.59,0,0,0,1.06,4.62,3.68,3.68,0,0,0,6.27,0,8.59,8.59,0,0,0,1.06-4.62A8.65,8.65,0,0,0,253.75,64.63Z"/><path class="cls-3" d="M281.49,78.21V66.15a3.13,3.13,0,0,0-.92-2.38,3.6,3.6,0,0,0-2.48-.82,4.3,4.3,0,0,0-3.27,1.19V78.21h-3.63V65.82a2.57,2.57,0,0,0-1-2.11,4.2,4.2,0,0,0-2.64-.76,7.67,7.67,0,0,0-3,.53V78.21h-3.6V61.3a16.53,16.53,0,0,1,6.4-1.26Q271.16,60,273,62A8.8,8.8,0,0,1,278.92,60a6.43,6.43,0,0,1,4.52,1.55,5.51,5.51,0,0,1,1.65,4.2V78.21Z"/></svg>