<svg width="54" height="59" viewBox="0 0 54 59" fill="none" xmlns="http://www.w3.org/2000/svg">
<path fill-rule="evenodd" clip-rule="evenodd" d="M34.3241 11.5392C34.3241 16.2553 31.045 20.0784 27 20.0784C22.955 20.0784 19.6759 16.2553 19.6759 11.5392C19.6759 6.82313 22.955 3 27 3C31.045 3 34.3241 6.82313 34.3241 11.5392ZM10.9526 23.4839C14.0538 23.3246 16.5262 20.3428 16.5262 16.6877C16.5262 12.9306 13.9138 9.88481 10.6913 9.88481C7.46882 9.88481 4.85646 12.9306 4.85646 16.6877C4.85646 20.3828 7.38322 23.3898 10.5321 23.4881C6.02084 23.663 2 27.9943 2 33.8695V38.8623C2 39.8054 2.65585 40.5701 3.46482 40.5701H12.3514V33.7387C12.3514 30.3551 13.1997 27.1982 14.6615 24.5418C13.4442 23.8422 12.1843 23.507 10.9526 23.4839ZM48.9446 16.6877C48.9446 20.347 46.4666 23.3315 43.3603 23.4844C47.8818 23.5852 52.0002 27.8487 52.0002 33.7377V38.8612C52.0002 39.8044 51.3444 40.569 50.5354 40.569H41.6488V33.7377C41.6488 30.358 40.8024 27.2046 39.3438 24.5502C40.5138 23.8697 41.732 23.531 42.9304 23.4874C39.7909 23.3769 37.2749 20.3749 37.2749 16.6877C37.2749 12.9306 39.8873 9.88481 43.1098 9.88481C46.3323 9.88481 48.9446 12.9306 48.9446 16.6877ZM26.9999 20.0845C20.5279 20.0845 15.2813 26.2015 15.2813 33.7472V40.5786C15.2813 41.5218 15.9372 42.2864 16.7462 42.2864H37.2536C38.0626 42.2864 38.7184 41.5218 38.7184 40.5786V33.7472C38.7184 26.2015 33.4718 20.0845 26.9999 20.0845Z" fill="#FC7321"/>
<path opacity="0.3" d="M0 55.5C0 53.567 1.567 52 3.5 52H27H50.5C52.433 52 54 53.567 54 55.5C54 57.433 52.433 59 50.5 59H27H3.5C1.567 59 0 57.433 0 55.5Z" fill="#F1B086"/>
</svg>
