<svg width="54" height="59" viewBox="0 0 54 59" fill="none" xmlns="http://www.w3.org/2000/svg">
<path fill-rule="evenodd" clip-rule="evenodd" d="M23.6702 10.7907C29.5887 4.14243 38.939 -0.143335 47.1378 0.00366564C47.605 0.0159157 47.9813 0.392167 47.9935 0.857668C48.1843 9.04594 43.8635 18.3927 37.2082 24.3235C37.1015 29.9795 34.7827 35.4868 30.784 39.4855C30.609 39.6588 30.3552 39.7673 30.1067 39.7673C30.021 39.7673 29.937 39.755 29.8565 39.7288C29.5432 39.6238 29.2842 39.3823 29.237 39.0533L28.271 32.3088L27.3382 33.1418C27.1719 33.2905 26.9637 33.364 26.7554 33.364C26.5297 33.364 26.3057 33.2783 26.1359 33.1085L14.8887 21.8612C14.5597 21.5322 14.5439 21.0055 14.8537 20.659L15.6867 19.7262L8.94214 18.7602C8.61314 18.713 8.34014 18.4837 8.23514 18.167C8.13189 17.852 8.21589 17.5037 8.45214 17.271C12.5069 13.2162 18.0142 10.8974 23.6702 10.7907ZM35.9797 16.389C37.1015 16.389 38.2215 15.962 39.0737 15.1097C40.78 13.4052 40.78 10.6279 39.0737 8.92169C37.3675 7.21544 34.592 7.21544 32.8857 8.92169C31.1812 10.6279 31.1812 13.4035 32.8857 15.1097C33.738 15.962 34.858 16.389 35.9797 16.389ZM6.03685 40.8734C6.32385 39.9161 8.89461 31.4566 10.7671 29.5841C12.8759 27.4771 16.3059 27.4753 18.4164 29.5841C20.5251 31.6929 20.5251 35.1246 18.4164 37.2334C16.5439 39.1059 8.08436 41.6766 7.1271 41.9636C7.0431 41.9881 6.9591 42.0004 6.8751 42.0004C6.64585 42.0004 6.4236 41.9111 6.2556 41.7431C6.02985 41.5156 5.9441 41.1814 6.03685 40.8734Z" fill="#FC7321"/>
<path opacity="0.3" d="M0 55.5C0 53.567 1.567 52 3.5 52H27H50.5C52.433 52 54 53.567 54 55.5C54 57.433 52.433 59 50.5 59H27H3.5C1.567 59 0 57.433 0 55.5Z" fill="#F1B086"/>
</svg>
