<svg width="54" height="59" viewBox="0 0 54 59" fill="none" xmlns="http://www.w3.org/2000/svg">
<g clip-path="url(#clip0_1153_22575)">
<path d="M28.3608 26.4762C28.0158 26.6104 27.5175 26.7062 27 26.7062C26.4825 26.7062 25.9842 26.6104 25.5242 26.4379L4 19.2695V33.8937C4 36.807 6.3575 39.1645 9.27083 39.1645H44.7292C47.6425 39.1645 50 36.807 50 33.8937V19.2695L28.3608 26.4762Z" fill="#FC7321"/>
<path d="M32.7506 9.45703C31.6926 9.45703 30.834 8.59836 30.834 7.54036V4.66536H23.1673V7.54036C23.1673 8.59836 22.3086 9.45703 21.2506 9.45703C20.1926 9.45703 19.334 8.59836 19.334 7.54036V4.66536C19.334 2.55128 21.0532 0.832031 23.1673 0.832031H30.834C32.948 0.832031 34.6673 2.55128 34.6673 4.66536V7.54036C34.6673 8.59836 33.8086 9.45703 32.7506 9.45703Z" fill="#FC7321"/>
<path d="M50 11.8529V16.242L27.46 23.7554C27.3067 23.8129 27.1533 23.832 27 23.832C26.8467 23.832 26.6933 23.8129 26.54 23.7554L4 16.242V11.8529C4 8.93953 6.3575 6.58203 9.27083 6.58203H44.7292C47.6425 6.58203 50 8.93953 50 11.8529Z" fill="#FC7321"/>
</g>
<path opacity="0.3" d="M0 55.5C0 53.567 1.567 52 3.5 52H27H50.5C52.433 52 54 53.567 54 55.5C54 57.433 52.433 59 50.5 59H27H3.5C1.567 59 0 57.433 0 55.5Z" fill="#F1B086"/>
<defs>
<clipPath id="clip0_1153_22575">
<rect width="46" height="40" fill="white" transform="translate(4)"/>
</clipPath>
</defs>
</svg>
