<svg id="Layer_1" data-name="Layer 1" xmlns="http://www.w3.org/2000/svg" viewBox="0 0 402 128"><defs><style>.cls-1{fill:#0e69af;}.cls-2{fill:#0db04b;}.cls-3{fill:#f27226;}.cls-4{fill:#1068b0;}</style></defs><path class="cls-1" d="M157.17,88.78a5.37,5.37,0,1,1,5.37,5.37,5.38,5.38,0,0,1-5.37-5.37m9.43,0a4.07,4.07,0,1,0-4.06,4.33,4.12,4.12,0,0,0,4.06-4.33m-6.12-3.06h2.25c1.46,0,2.25.5,2.25,1.78a1.51,1.51,0,0,1-1.59,1.64L165,91.8h-1.16l-1.57-2.62h-.68V91.8h-1.13Zm1.13,2.6h1c.66,0,1.24-.09,1.24-.9s-.65-.84-1.23-.84h-1Z"/><path class="cls-2" d="M138.87,31.85a18.86,18.86,0,0,0-17.49,12.54c-.14.37-.63,1.92-.63,1.92l-11,47.84h25.37c8.72,0,16.1-6.29,18.19-14.76h0l11-47.54Z"/><path class="cls-3" d="M96.62,18A18.65,18.65,0,0,0,78.73,31.61c-.16.58-.3,1.18-.41,1.79L61.1,108H86.45a18.65,18.65,0,0,0,18-14.15h0L122,18Z"/><path class="cls-1" d="M48,31.85A18.92,18.92,0,0,0,30.22,45.19c0,.18-.11.35-.16.53l-.43,1.66L18.84,94.15h26a18.28,18.28,0,0,0,17-12.37l1-4.45,10.5-45.48Z"/><path class="cls-4" d="M234,78.37V54.54h3.72V78.37Z"/><path class="cls-4" d="M251.62,78.37V66.52q0-3.36-3.72-3.36a8.68,8.68,0,0,0-3.26.53V78.37h-3.59V61.52a17.78,17.78,0,0,1,6.82-1.26q7.37,0,7.37,5.93V78.37Z"/><path class="cls-4" d="M267.25,78.37h-4.14l-6.45-17.74h4l3.75,11.85a22.13,22.13,0,0,1,.73,2.76h.06q.3-1.48.69-2.76l3.79-11.85h4Z"/><path class="cls-4" d="M289.51,69.42l-11.79,1.64q.55,4.81,5.43,4.81a10.27,10.27,0,0,0,4.91-1.09l1.05,2.7a13.41,13.41,0,0,1-6.19,1.25,8.33,8.33,0,0,1-6.45-2.5,9.52,9.52,0,0,1-2.27-6.75,10,10,0,0,1,2.14-6.65,7.29,7.29,0,0,1,5.86-2.57,7.07,7.07,0,0,1,5.4,2.11,8.1,8.1,0,0,1,1.94,5.7Q289.54,69,289.51,69.42Zm-3.43-1.91c0-3.08-1.34-4.61-3.95-4.61a4,4,0,0,0-3.32,1.51,6.61,6.61,0,0,0-1.32,4.28Z"/><path class="cls-4" d="M301.58,77.28a7.92,7.92,0,0,1-5.1,1.45A11.6,11.6,0,0,1,291,77.48l1.22-2.77a8,8,0,0,0,4.21,1.16,3.82,3.82,0,0,0,2.34-.66,2.11,2.11,0,0,0,.89-1.78q0-1.74-3.16-2.9a11.52,11.52,0,0,1-3.39-1.74,4.69,4.69,0,0,1,0-7.14,7,7,0,0,1,4.58-1.39,10.12,10.12,0,0,1,5.16,1.26L301.68,64A6.75,6.75,0,0,0,298,63a3.27,3.27,0,0,0-2.17.66,2,2,0,0,0-.76,1.61A2.16,2.16,0,0,0,296,67a8.26,8.26,0,0,0,2.17,1.06,13.44,13.44,0,0,1,3.52,1.74,4.44,4.44,0,0,1,1.68,3.65A4.55,4.55,0,0,1,301.58,77.28Z"/><path class="cls-4" d="M313.9,78.2a5.32,5.32,0,0,1-2.24.4q-4.87,0-4.87-5.2V63.33h-2.41v-2.7h2.41V56.51l3.52-1.08v5.2h3.59v2.7h-3.59V73.2c0,1.49.79,2.24,2.37,2.24a3.12,3.12,0,0,0,1.22-.23Z"/><path class="cls-4" d="M336.51,78.37v-12a3.12,3.12,0,0,0-.92-2.37,3.63,3.63,0,0,0-2.47-.82,4.28,4.28,0,0,0-3.26,1.19v14h-3.62V66a2.57,2.57,0,0,0-1-2.11,4.19,4.19,0,0,0-2.63-.76,7.65,7.65,0,0,0-3,.53V78.37H316V61.52a16.48,16.48,0,0,1,6.39-1.26q3.81,0,5.66,1.91a8.78,8.78,0,0,1,5.89-1.91,6.4,6.4,0,0,1,4.51,1.55A5.46,5.46,0,0,1,340.1,66V78.37Z"/><path class="cls-4" d="M357.84,69.42l-11.79,1.64q.57,4.81,5.43,4.81a10.24,10.24,0,0,0,4.91-1.09l1.05,2.7a13.41,13.41,0,0,1-6.19,1.25,8.33,8.33,0,0,1-6.45-2.5,9.52,9.52,0,0,1-2.27-6.75,10,10,0,0,1,2.14-6.65,7.29,7.29,0,0,1,5.86-2.57,7.07,7.07,0,0,1,5.4,2.11,8.1,8.1,0,0,1,1.94,5.7Q357.87,69,357.84,69.42Zm-3.43-1.91c0-3.08-1.33-4.61-4-4.61a4,4,0,0,0-3.32,1.51,6.61,6.61,0,0,0-1.32,4.28Z"/><path class="cls-4" d="M370.87,78.37V66.52q0-3.36-3.72-3.36a8.72,8.72,0,0,0-3.26.53V78.37h-3.58V61.52a17.73,17.73,0,0,1,6.81-1.26q7.36,0,7.37,5.93V78.37Z"/><path class="cls-4" d="M385.68,78.2a5.24,5.24,0,0,1-2.23.4q-4.87,0-4.88-5.2V63.33h-2.4v-2.7h2.4V56.51l3.53-1.08v5.2h3.58v2.7H382.1V73.2c0,1.49.79,2.24,2.37,2.24a3,3,0,0,0,1.21-.23Z"/><path class="cls-4" d="M183.38,57.82v7h7.83v3h-7.83V78.37h-3.63V54.72H192v3.1Z"/><path class="cls-4" d="M207.35,67a10.33,10.33,0,0,1-6.83,2,15.12,15.12,0,0,1-2.48-.19v9.54h-3.63V55.6A15.48,15.48,0,0,1,201,54.36a9.73,9.73,0,0,1,6.5,2,6.79,6.79,0,0,1,2.25,5.39A6.46,6.46,0,0,1,207.35,67ZM201,57.2a8.15,8.15,0,0,0-2.94.49V66a13.71,13.71,0,0,0,2.35.16,6.44,6.44,0,0,0,4.21-1.21,3.85,3.85,0,0,0,1.47-3.23C206.07,58.7,204.38,57.2,201,57.2Z"/><path class="cls-4" d="M219.86,57.82V78.37h-3.69V57.82h-5.46v-3.1h14.57v3.1Z"/></svg>