<svg id="Layer_1" data-name="Layer 1" xmlns="http://www.w3.org/2000/svg" viewBox="0 0 371 128"><defs><style>.cls-1{fill:#0db04b;}.cls-2{fill:#f27226;}.cls-3{fill:#0e69af;}.cls-4{fill:#fff;}.cls-5{fill:#1068b0;}</style></defs><path class="cls-1" d="M139.67,31.81a18.83,18.83,0,0,0-17.46,12.51c-.14.38-.62,1.92-.62,1.92L110.57,94h25.31c8.7,0,16.06-6.27,18.14-14.73h0L165,31.81Z"/><path class="cls-2" d="M97.52,18A18.6,18.6,0,0,0,79.67,31.57a17.87,17.87,0,0,0-.41,1.79L62.07,107.78h25.3a18.6,18.6,0,0,0,18-14.11h0L122.84,18Z"/><path class="cls-3" d="M49,31.81A18.89,18.89,0,0,0,31.27,45.13c-.05.17-.11.34-.16.52l-.42,1.66L19.92,94H45.84a18.23,18.23,0,0,0,17-12.34l1-4.44L74.32,31.81Z"/><path class="cls-4" d="M44.28,47.31v0h-.39a7.91,7.91,0,0,0-5.07,1.92A8.42,8.42,0,0,0,36,53.21h0l-5.8,25.22h.33a8,8,0,0,0,5.12-1.93,8.28,8.28,0,0,0,3-4.67l1.28-5.47H51.41a8.08,8.08,0,0,0,5.12-1.94,8.21,8.21,0,0,0,3-4.64l.08-.33-18.12,0,1.21-5.2,15.69,0a8,8,0,0,0,5.07-1.9,8.42,8.42,0,0,0,3-4.64l.08-.34Z"/><path class="cls-4" d="M108.33,48.84a5.25,5.25,0,0,0-3.87-1.5l-22.14,0L75.17,78.39h0v0h.33a8,8,0,0,0,5.12-1.93,8.28,8.28,0,0,0,3-4.67l1.29-5.53h15.33a7.25,7.25,0,0,0,5-1.47,9.66,9.66,0,0,0,3.09-5.08L109.63,54a7.25,7.25,0,0,0,.16-1.41,5,5,0,0,0-1.46-3.75m-6.91,10.59-14.93,0,1.2-5.2h14.94Z"/><path class="cls-4" d="M153.38,48.86a5.18,5.18,0,0,0-3.85-1.51H126.16l0,.22a6.25,6.25,0,0,0-.17,1.37,5.06,5.06,0,0,0,1.44,3.8,5.19,5.19,0,0,0,3.86,1.51h4.89l-5.57,24.18h.33A8,8,0,0,0,136,76.49a8.22,8.22,0,0,0,3-4.66l4.08-17.58h11.53l0-.22a7.53,7.53,0,0,0,.16-1.42,5,5,0,0,0-1.44-3.75"/><path class="cls-5" d="M157.92,88.61A5.36,5.36,0,1,1,163.27,94a5.36,5.36,0,0,1-5.35-5.36m9.41,0a4.06,4.06,0,1,0-4.06,4.32,4.12,4.12,0,0,0,4.06-4.32m-6.12-3h2.26c1.45,0,2.24.5,2.24,1.78A1.51,1.51,0,0,1,164.12,89l1.63,2.65H164.6L163,89h-.69v2.61h-1.13Zm1.13,2.59h1c.66,0,1.24-.09,1.24-.9s-.65-.83-1.23-.83h-1Z"/><path class="cls-5" d="M191.23,76.17A8.48,8.48,0,0,1,185.48,78a12.11,12.11,0,0,1-5.78-1.22L181,73.67a9,9,0,0,0,4.4,1.12,4.83,4.83,0,0,0,3.12-.93,3.06,3.06,0,0,0,1.19-2.54c0-1.45-1.25-2.73-3.73-3.82a14.76,14.76,0,0,1-4-2.44,5.76,5.76,0,0,1-2-4.43,6.09,6.09,0,0,1,2-4.79,7.79,7.79,0,0,1,5.33-1.76,10.08,10.08,0,0,1,5.24,1.22l-1.16,3a8,8,0,0,0-3.95-1.06,4.23,4.23,0,0,0-2.79.87,2.9,2.9,0,0,0-1.06,2.38c0,1.41,1.3,2.72,3.92,3.92a14.89,14.89,0,0,1,3.91,2.37,5.81,5.81,0,0,1,1.93,4.43A6.34,6.34,0,0,1,191.23,76.17Z"/><path class="cls-5" d="M217.08,77.68V66a3,3,0,0,0-.9-2.31,3.46,3.46,0,0,0-2.41-.8A4.17,4.17,0,0,0,210.59,64V77.68h-3.53v-12a2.51,2.51,0,0,0-1-2.06,4.13,4.13,0,0,0-2.57-.73,7.55,7.55,0,0,0-3,.51V77.68h-3.5V61.24A16.24,16.24,0,0,1,203.3,60q3.73,0,5.53,1.86A8.55,8.55,0,0,1,214.58,60a6.24,6.24,0,0,1,4.4,1.51,5.33,5.33,0,0,1,1.6,4.08V77.68Z"/><path class="cls-5" d="M237.76,76.81A13.2,13.2,0,0,1,231.53,78q-7.49,0-7.48-5.42a4.82,4.82,0,0,1,3.21-4.69,21.59,21.59,0,0,1,7.16-1.28v-1.1q0-3-3.66-3A11,11,0,0,0,226,63.65l-.9-2.41a14.8,14.8,0,0,1,6-1.22q6.66,0,6.65,5.88ZM234.42,69a18.39,18.39,0,0,0-4.85.71,2.9,2.9,0,0,0-2.21,2.85q0,3,4.08,3a7.43,7.43,0,0,0,3-.45Z"/><path class="cls-5" d="M250.06,63.07a7.22,7.22,0,0,0-1.77-.19,7,7,0,0,0-2.72.45V77.68h-3.51V61.24A17.26,17.26,0,0,1,248.78,60a10.83,10.83,0,0,1,2,.13Z"/><path class="cls-5" d="M261.85,77.52a5.24,5.24,0,0,1-2.19.39q-4.76,0-4.75-5.08V63h-2.34V60.37h2.34v-4l3.44-1.06v5.07h3.5V63h-3.5v9.63c0,1.46.77,2.18,2.31,2.18a3,3,0,0,0,1.19-.22Z"/><path class="cls-5" d="M287.21,76.81a9.05,9.05,0,0,1-5,1.22,8,8,0,0,1-6.46-3q-2.73-3.21-2.73-9t2.73-9a8,8,0,0,1,6.46-3,9.14,9.14,0,0,1,5,1.22L286,58.22a5.72,5.72,0,0,0-3.44-1,4.91,4.91,0,0,0-4.14,2.15A11.21,11.21,0,0,0,276.78,66a11.08,11.08,0,0,0,1.67,6.59,4.89,4.89,0,0,0,4.14,2.18,5.77,5.77,0,0,0,3.44-.93Z"/><path class="cls-5" d="M290.72,77.68V52.47h3.53V77.68Z"/><path class="cls-5" d="M311.27,75.43a7.45,7.45,0,0,1-11.31,0A10,10,0,0,1,298,69,10,10,0,0,1,300,62.59a7.51,7.51,0,0,1,11.31,0,10,10,0,0,1,2,6.42A10,10,0,0,1,311.27,75.43Zm-2.6-11a3.62,3.62,0,0,0-6.1,0,8.38,8.38,0,0,0-1,4.5,8.4,8.4,0,0,0,1,4.5,3.59,3.59,0,0,0,6.1,0,8.5,8.5,0,0,0,1-4.5A8.47,8.47,0,0,0,308.67,64.48Z"/><path class="cls-5" d="M330.47,76.81A14.77,14.77,0,0,1,323.89,78q-7,0-7-6.22V60.37h3.5v11.5c0,2.18,1.16,3.27,3.5,3.27a7.87,7.87,0,0,0,3.08-.48V60.37h3.5Z"/><path class="cls-5" d="M348.52,76.81A12.17,12.17,0,0,1,342.58,78a8.11,8.11,0,0,1-6.23-2.37,9.06,9.06,0,0,1-2.22-6.49,9.51,9.51,0,0,1,2.06-6.45,7.48,7.48,0,0,1,6-2.51,8.8,8.8,0,0,1,2.8.42V52.47h3.53ZM345,63.29a6.62,6.62,0,0,0-2.48-.38,4.25,4.25,0,0,0-3.62,1.77,7.4,7.4,0,0,0-1.22,4.49,7.07,7.07,0,0,0,1.25,4.47,4.27,4.27,0,0,0,3.59,1.6,5.37,5.37,0,0,0,2.48-.45Z"/></svg>