<svg id="Layer_1" data-name="Layer 1" xmlns="http://www.w3.org/2000/svg" viewBox="0 0 333 128"><defs><style>.cls-1{fill:#1169b0;}.cls-2{fill:#16b14b;}.cls-3{fill:#f27227;}.cls-4{fill:#fff;}.cls-5{fill:#1268b1;}</style></defs><g id="Layer_2" data-name="Layer 2"><g id="Layer_1-2" data-name="Layer 1-2"><path class="cls-1" d="M180.91,88.91a5.3,5.3,0,1,1,5.3,5.3,5.3,5.3,0,0,1-5.3-5.3m9.32,0a4,4,0,1,0-4,4.28,4.09,4.09,0,0,0,4-4.13v-.15m-6.06-3h2.22c1.44,0,2.22.5,2.22,1.77a1.5,1.5,0,0,1-1.38,1.61H187l1.61,2.62h-1.14L186,89.31h-.67v2.58h-1.12Zm1.12,2.57h1c.66,0,1.23-.1,1.23-.89s-.64-.81-1.22-.81h-1Z"/><path class="cls-2" d="M163.81,32.71A18.64,18.64,0,0,0,146.53,45.1c-.14.37-.62,1.89-.62,1.89L135,94.25h25.06c8.62,0,15.9-6.21,18-14.59h0l10.86-46.95Z"/><path class="cls-3" d="M122.09,19a18.42,18.42,0,0,0-17.67,13.44c-.16.58-.29,1.17-.41,1.77L87,107.9h25a18.43,18.43,0,0,0,17.81-14h0L147.17,19Z"/><path class="cls-1" d="M74.07,32.71A18.65,18.65,0,0,0,56.5,45.86c0,.17-.1.34-.16.52L55.92,48,45.26,94.22H70.93A18.06,18.06,0,0,0,87.74,82l1-4.39,10.38-44.9Z"/><path class="cls-4" d="M69.38,48H69a7.92,7.92,0,0,0-5,1.9,8.49,8.49,0,0,0-2.8,3.9h0l-5.75,25h.33a7.85,7.85,0,0,0,5.06-1.91,8.2,8.2,0,0,0,3-4.62L65,66.88H76.45a8.64,8.64,0,0,0,8-6.51l.08-.32H66.64l1.19-5.15H83.38a7.83,7.83,0,0,0,5-1.89,8.39,8.39,0,0,0,2.93-4.6l.08-.33Z"/><path class="cls-4" d="M132.8,49.54A5.22,5.22,0,0,0,129,48H107.05L100,78.79h.34a7.9,7.9,0,0,0,5.06-1.91,8.24,8.24,0,0,0,3-4.62l1.27-5.48h15.18a7.19,7.19,0,0,0,4.92-1.46,9.61,9.61,0,0,0,3.07-5l1.33-5.7a7.33,7.33,0,0,0,.16-1.4A4.92,4.92,0,0,0,132.8,49.54ZM126,60H111.17l1.2-5.17h14.79Z"/><path class="cls-4" d="M177.41,49.56A5.16,5.16,0,0,0,173.59,48H150.46l-.05.22a6.93,6.93,0,0,0-.17,1.36,5,5,0,0,0,1.43,3.75,5.14,5.14,0,0,0,3.82,1.5h4.84L154.82,78.8h.32a8,8,0,0,0,5.08-1.91,8.27,8.27,0,0,0,2.95-4.62l4-17.41h11.42v-.22a6.61,6.61,0,0,0,.16-1.4A5,5,0,0,0,177.41,49.56Z"/><path class="cls-5" d="M210,79.22A15.23,15.23,0,0,1,203.54,78V55.69A15.56,15.56,0,0,1,210,54.44c6.34,0,10.49,4.21,10.49,12.38S216.33,79.22,210,79.22Zm.2-21.63a7.66,7.66,0,0,0-2.89.47V75.6a7.66,7.66,0,0,0,2.89.47c3.72,0,6.54-2.76,6.54-9.25S213.91,57.59,210.19,57.59Z"/><path class="cls-5" d="M225,57.71a2.06,2.06,0,1,1,2.16-2.06A2.11,2.11,0,0,1,225,57.71Zm-1.82,21.17V60.94h3.65V78.86Z"/><path class="cls-5" d="M236.63,86.33A14.94,14.94,0,0,1,230.25,85l1.07-2.86a11.14,11.14,0,0,0,5,1.13c2.95,0,4.39-1.56,4.39-4.46V77.46a9.45,9.45,0,0,1-3.63.73c-4.52,0-7.67-3.12-7.67-8.54,0-6.18,3.62-9.07,8.87-9.07a13.81,13.81,0,0,1,6,1.26V78.78C244.27,83.67,241.35,86.33,236.63,86.33Zm4-22.46A7.76,7.76,0,0,0,238,63.4c-2.82,0-5,1.79-5,6.12,0,3.92,1.89,5.88,4.71,5.88a7.21,7.21,0,0,0,2.93-.63Z"/><path class="cls-5" d="M249.3,57.71a2.06,2.06,0,1,1,2.16-2.06A2.11,2.11,0,0,1,249.3,57.71Zm-1.82,21.17V60.94h3.65V78.86Z"/><path class="cls-5" d="M260.51,79.08c-3.15,0-4.91-1.76-4.91-5.24V63.67h-2.42V60.94h2.42V56.79l3.55-1.1v5.25h3.63v2.72h-3.63v10a2.13,2.13,0,0,0,2.42,2.26,3.26,3.26,0,0,0,1.24-.24v3A6.06,6.06,0,0,1,260.51,79.08Z"/><path class="cls-5" d="M271.94,79.22c-5.15,0-7.74-2.1-7.74-5.65,0-5,5.32-5.88,10.73-6.18V66.26c0-2.26-1.49-3.06-3.79-3.06a13.14,13.14,0,0,0-4.9,1.13l-.94-2.49a16.76,16.76,0,0,1,6.25-1.26c4.28,0,6.88,1.66,6.88,6.08V78A15.41,15.41,0,0,1,271.94,79.22Zm3-9.37c-3.65.2-7.31.5-7.31,3.68,0,1.9,1.46,3.06,4.22,3.06a9.27,9.27,0,0,0,3.09-.46Z"/><path class="cls-5" d="M281.61,78.86V52.78h3.65V78.86Z"/></g></g></svg>