<svg id="Layer_1" data-name="Layer 1" xmlns="http://www.w3.org/2000/svg" viewBox="0 0 333 128"><defs><style>.cls-1{fill:#0db04b;}.cls-2{fill:#f27226;}.cls-3{fill:#0e69af;}.cls-4{fill:#fff;}.cls-5{fill:#1068b0;}</style></defs><path class="cls-1" d="M140.4,31.82a18.84,18.84,0,0,0-17.46,12.53c-.15.37-.63,1.91-.63,1.91L111.28,94h25.34c8.7,0,16.07-6.28,18.15-14.74h0l11-47.47Z"/><path class="cls-2" d="M98.22,18A18.61,18.61,0,0,0,80.36,31.58c-.17.59-.3,1.19-.42,1.79L62.75,107.86H88.06a18.62,18.62,0,0,0,18-14.13h0L123.56,18Z"/><path class="cls-3" d="M49.68,31.82A18.9,18.9,0,0,0,31.92,45.15l-.16.52-.42,1.67L20.56,94H46.5a18.25,18.25,0,0,0,17-12.35l1-4.44L75,31.82Z"/><path class="cls-4" d="M44.94,47.34v0h-.39a7.88,7.88,0,0,0-5.08,1.92,8.37,8.37,0,0,0-2.83,3.94h0L30.81,78.48h.33a8,8,0,0,0,5.12-1.94,8.27,8.27,0,0,0,3-4.66l1.27-5.48H52.08a8.06,8.06,0,0,0,5.12-2,8.19,8.19,0,0,0,3-4.64l.07-.33H42.13l1.21-5.21,15.7,0a7.94,7.94,0,0,0,5.07-1.9,8.5,8.5,0,0,0,3-4.65l.08-.33Z"/><path class="cls-4" d="M109,48.87a5.26,5.26,0,0,0-3.87-1.51L83,47.34l-7.16,31.1h0v0h.33a8,8,0,0,0,5.13-1.94,8.33,8.33,0,0,0,3-4.66l1.28-5.55,15.34,0a7.28,7.28,0,0,0,5-1.47A9.59,9.59,0,0,0,109,59.79L110.34,54a6.57,6.57,0,0,0,.16-1.42A5,5,0,0,0,109,48.87Zm-6.91,10.59H87.18l1.21-5.22,15,0Z"/><path class="cls-4" d="M154.13,48.89a5.15,5.15,0,0,0-3.86-1.51H126.89l0,.22a7.65,7.65,0,0,0-.17,1.37,5.12,5.12,0,0,0,1.45,3.8A5.19,5.19,0,0,0,132,54.28h4.89l-5.57,24.2h.33a7.93,7.93,0,0,0,5.12-1.94,8.27,8.27,0,0,0,3-4.66l4.09-17.6h11.53l0-.22a7.53,7.53,0,0,0,.16-1.42A5,5,0,0,0,154.13,48.89Z"/><path class="cls-3" d="M158.68,88.67A5.36,5.36,0,1,1,164,94a5.36,5.36,0,0,1-5.35-5.36m9.41,0A4.06,4.06,0,1,0,164,93a4.11,4.11,0,0,0,4.06-4.32M162,85.61h2.26c1.45,0,2.24.51,2.24,1.78A1.53,1.53,0,0,1,164.88,89l1.63,2.65h-1.16l-1.56-2.62h-.69v2.62H162Zm1.13,2.6h1c.66,0,1.24-.1,1.24-.9s-.65-.84-1.23-.84h-1Z"/><path class="cls-5" d="M181.29,78.36v-24h12.59v3.15H185v7.05h8.11v3.08H185v7.55h8.91v3.14Z"/><path class="cls-5" d="M210.53,77.47a12.56,12.56,0,0,1-6.12,1.26A8.37,8.37,0,0,1,198,76.28a9.36,9.36,0,0,1-2.28-6.69,9.82,9.82,0,0,1,2.12-6.66A7.71,7.71,0,0,1,204,60.35a9,9,0,0,1,2.88.43V52.37h3.64Zm-3.64-13.94a6.54,6.54,0,0,0-2.55-.4A4.41,4.41,0,0,0,200.6,65a7.71,7.71,0,0,0-1.26,4.64,7.31,7.31,0,0,0,1.29,4.6,4.44,4.44,0,0,0,3.71,1.66,5.54,5.54,0,0,0,2.55-.47Z"/><path class="cls-5" d="M227.68,77.47a15.32,15.32,0,0,1-6.79,1.26q-7.21,0-7.21-6.43V60.52h3.61V72.37q0,3.38,3.6,3.38a8.12,8.12,0,0,0,3.18-.5V60.52h3.61Z"/><path class="cls-5" d="M242.58,77.5A8,8,0,0,1,238,78.73a7.13,7.13,0,0,1-5.39-2.22,9.78,9.78,0,0,1-2.45-7.09,9.66,9.66,0,0,1,2.45-7.05A7.13,7.13,0,0,1,238,60.15a8,8,0,0,1,4.57,1.23L241.39,64a4.87,4.87,0,0,0-2.91-.86,3.92,3.92,0,0,0-3.18,1.49,7.31,7.31,0,0,0-1.39,4.77,7.2,7.2,0,0,0,1.42,4.77,3.94,3.94,0,0,0,3.15,1.52,4.87,4.87,0,0,0,2.91-.86Z"/><path class="cls-5" d="M258,77.47a13.72,13.72,0,0,1-6.43,1.26q-7.71,0-7.71-5.6a5,5,0,0,1,3.31-4.83A22.38,22.38,0,0,1,254.54,67V65.85q0-3-3.78-3a11.38,11.38,0,0,0-4.93,1.09l-.93-2.48a15.2,15.2,0,0,1,6.22-1.26q6.86,0,6.86,6.06Zm-3.44-8.08a18.72,18.72,0,0,0-5,.73,3,3,0,0,0-2.29,2.94c0,2,1.4,3,4.21,3a7.71,7.71,0,0,0,3.08-.46Z"/><path class="cls-5" d="M269.5,78.2a5.48,5.48,0,0,1-2.25.39q-4.9,0-4.9-5.23V63.23h-2.42V60.52h2.42V56.38l3.54-1.1v5.24h3.61v2.71h-3.61v9.93c0,1.51.8,2.26,2.39,2.26a2.92,2.92,0,0,0,1.22-.24Z"/><path class="cls-5" d="M275.1,56.67a2.24,2.24,0,0,1-3.05,0,1.91,1.91,0,0,1-.63-1.45,1.93,1.93,0,0,1,.63-1.46,2.27,2.27,0,0,1,3.05,0,1.93,1.93,0,0,1,.63,1.46A1.91,1.91,0,0,1,275.1,56.67Zm-3.35,21.69V60.52h3.64V78.36Z"/><path class="cls-5" d="M291.65,76A7.65,7.65,0,0,1,280,76a10.22,10.22,0,0,1-2-6.62,10.25,10.25,0,0,1,2-6.62,7.73,7.73,0,0,1,11.65,0,10.25,10.25,0,0,1,2,6.62A10.22,10.22,0,0,1,291.65,76ZM289,64.75a3.74,3.74,0,0,0-6.29,0,8.66,8.66,0,0,0-1.06,4.64A8.63,8.63,0,0,0,282.68,74,3.69,3.69,0,0,0,289,74,8.63,8.63,0,0,0,290,69.39,8.66,8.66,0,0,0,289,64.75Z"/><path class="cls-5" d="M306.78,78.36V66.44c0-2.25-1.24-3.38-3.74-3.38a8.79,8.79,0,0,0-3.28.53V78.36h-3.6v-17A17.9,17.9,0,0,1,303,60.15q7.41,0,7.42,6V78.36Z"/></svg>