<svg id="Layer_1" data-name="Layer 1" xmlns="http://www.w3.org/2000/svg" viewBox="0 0 333 128"><defs><style>.cls-1{fill:#0e69af;}.cls-2{fill:#0db04b;}.cls-3{fill:#f27226;}.cls-4{fill:#1068b0;}</style></defs><path class="cls-1" d="M162.93,88.78a5.37,5.37,0,1,1,5.37,5.37,5.38,5.38,0,0,1-5.37-5.37m9.43,0a4.06,4.06,0,1,0-4.06,4.33,4.12,4.12,0,0,0,4.06-4.33m-6.12-3.06h2.26c1.45,0,2.25.5,2.25,1.78a1.52,1.52,0,0,1-1.6,1.64l1.63,2.66h-1.15l-1.58-2.62h-.68V91.8h-1.13Zm1.13,2.6h1c.66,0,1.24-.09,1.24-.9s-.65-.84-1.23-.84h-1Z"/><path class="cls-2" d="M144.63,31.85a18.86,18.86,0,0,0-17.49,12.54c-.14.37-.63,1.92-.63,1.92l-11,47.84h25.37c8.72,0,16.1-6.29,18.19-14.76h0l11-47.54Z"/><path class="cls-3" d="M102.39,18a18.65,18.65,0,0,0-17.9,13.61c-.16.58-.3,1.18-.41,1.79L66.86,108H92.21a18.65,18.65,0,0,0,18-14.15h0L127.77,18Z"/><path class="cls-1" d="M53.76,31.85A18.93,18.93,0,0,0,36,45.19c0,.18-.11.35-.16.53l-.43,1.66L24.6,94.15h26a18.28,18.28,0,0,0,17-12.37l1-4.45L79.13,31.85Z"/><path class="cls-4" d="M189.54,57.82v7h7.84v3h-7.84V78.37h-3.62V54.72h12.21v3.1Z"/><path class="cls-4" d="M213.52,67a10.33,10.33,0,0,1-6.83,2,15.12,15.12,0,0,1-2.48-.19v9.54h-3.63V55.6a15.48,15.48,0,0,1,6.54-1.24,9.73,9.73,0,0,1,6.5,2,6.79,6.79,0,0,1,2.25,5.39A6.49,6.49,0,0,1,213.52,67Zm-6.37-9.77a8.15,8.15,0,0,0-2.94.49V66a13.71,13.71,0,0,0,2.35.16,6.44,6.44,0,0,0,4.21-1.21,3.85,3.85,0,0,0,1.47-3.23C212.24,58.7,210.55,57.2,207.15,57.2Z"/><path class="cls-4" d="M226,57.82V78.37h-3.69V57.82h-5.46v-3.1h14.57v3.1Z"/><path class="cls-4" d="M253.53,78.37l-3.34-7.48a3.79,3.79,0,0,0-3.62-2.55h-2.09v10h-3.63V55.63a16.66,16.66,0,0,1,6.73-1.27A9.89,9.89,0,0,1,254,56.22a6.23,6.23,0,0,1,2.18,5c0,3.25-1.68,5.24-5.06,6v.06a6.77,6.77,0,0,1,2.78,3.34l3.52,7.74ZM247.65,57.2a8.87,8.87,0,0,0-3.17.49v8h2.77q5.33,0,5.33-4.24C252.58,58.61,250.93,57.2,247.65,57.2Z"/><path class="cls-4" d="M273.84,69.48l-11.69,1.64c.37,3.17,2.16,4.76,5.39,4.76a10.21,10.21,0,0,0,4.86-1.07l1.05,2.67a13.25,13.25,0,0,1-6.14,1.25,8.24,8.24,0,0,1-6.4-2.49,9.39,9.39,0,0,1-2.26-6.69,9.88,9.88,0,0,1,2.13-6.6,7.2,7.2,0,0,1,5.81-2.55,7,7,0,0,1,5.35,2.09,8,8,0,0,1,1.93,5.65C273.87,68.73,273.86,69.18,273.84,69.48Zm-3.4-1.89q0-4.57-3.92-4.57a4,4,0,0,0-3.29,1.5,6.56,6.56,0,0,0-1.31,4.24Z"/><path class="cls-4" d="M284.58,78.2a5.32,5.32,0,0,1-2.22.39q-4.83,0-4.83-5.16v-10h-2.38V60.76h2.38V56.68L281,55.6v5.16h3.56v2.68H281v9.8c0,1.48.79,2.22,2.36,2.22a3,3,0,0,0,1.2-.23Z"/><path class="cls-4" d="M299.8,77.48a13.44,13.44,0,0,1-6.33,1.25q-7.62,0-7.61-5.52a4.9,4.9,0,0,1,3.26-4.77,22.2,22.2,0,0,1,7.29-1.31V66q0-3-3.73-3a11.2,11.2,0,0,0-4.86,1.07l-.92-2.45A15.17,15.17,0,0,1,293,60.4q6.76,0,6.76,6Zm-3.39-8a19.73,19.73,0,0,0-4.93.72,3,3,0,0,0-2.26,2.91q0,3,4.15,3a7.73,7.73,0,0,0,3-.45Z"/><path class="cls-4" d="M306.3,57a2.2,2.2,0,0,1-3,0,2,2,0,0,1,0-2.87,2.2,2.2,0,0,1,3,0,2,2,0,0,1,0,2.87ZM303,78.37V60.76h3.6V78.37Z"/><path class="cls-4" d="M309.9,78.37V52.73h3.59V78.37Z"/></svg>