<svg id="Layer_1" data-name="Layer 1" xmlns="http://www.w3.org/2000/svg" viewBox="0 0 333 128"><defs><style>.cls-1{fill:#0db04b;}.cls-2{fill:#f27226;}.cls-3{fill:#0e69af;}.cls-4{fill:#fff;}.cls-5{fill:#1068b0;}</style></defs><path class="cls-1" d="M164.12,31.85a18.87,18.87,0,0,0-17.5,12.54c-.14.37-.63,1.92-.63,1.92L135,94.15h25.37c8.72,0,16.1-6.29,18.19-14.76h0l11-47.54Z"/><path class="cls-2" d="M121.87,18A18.63,18.63,0,0,0,104,31.61a17.28,17.28,0,0,0-.42,1.79L86.34,108h25.35a18.65,18.65,0,0,0,18-14.15h0L147.25,18Z"/><path class="cls-3" d="M73.25,31.85A18.94,18.94,0,0,0,55.46,45.19c-.05.18-.11.35-.16.53l-.42,1.67L44.08,94.15h26a18.28,18.28,0,0,0,17-12.37l1-4.45,10.5-45.48Z"/><path class="cls-4" d="M68.5,47.38v0H68.1A7.89,7.89,0,0,0,63,49.35a8.37,8.37,0,0,0-2.84,3.94h0L54.35,78.58h.33a8,8,0,0,0,5.13-1.93,8.27,8.27,0,0,0,3-4.68l1.28-5.48H75.65a8.81,8.81,0,0,0,8.12-6.6l.07-.33H65.69l1.21-5.22,15.72,0a7.92,7.92,0,0,0,5.08-1.91,8.48,8.48,0,0,0,3-4.65l.08-.34Z"/><path class="cls-4" d="M132.71,48.92a5.28,5.28,0,0,0-3.88-1.51l-22.2,0L99.46,78.54h0v0h.33a8,8,0,0,0,5.14-1.93,8.37,8.37,0,0,0,3-4.68l1.29-5.55,15.36,0a7.26,7.26,0,0,0,5-1.47,9.69,9.69,0,0,0,3.11-5.1L134,54.09a7.35,7.35,0,0,0,.16-1.42A5,5,0,0,0,132.71,48.92Zm-6.93,10.61-15,0L112,54.29l15,0Z"/><path class="cls-4" d="M177.87,48.94A5.2,5.2,0,0,0,174,47.42H150.58l-.05.23a7.54,7.54,0,0,0-.17,1.37,5.09,5.09,0,0,0,1.45,3.8,5.18,5.18,0,0,0,3.87,1.51h4.9L155,78.58h.33a8,8,0,0,0,5.13-1.93,8.32,8.32,0,0,0,3-4.68l4.09-17.63H179.1l.05-.22a7.34,7.34,0,0,0,.16-1.41A5,5,0,0,0,177.87,48.94Z"/><path class="cls-3" d="M182.42,88.78a5.37,5.37,0,1,1,5.36,5.37,5.37,5.37,0,0,1-5.36-5.37m9.43,0a4.07,4.07,0,1,0-4.07,4.33,4.13,4.13,0,0,0,4.07-4.33m-6.13-3.06H188c1.45,0,2.25.5,2.25,1.78a1.52,1.52,0,0,1-1.6,1.64l1.64,2.66h-1.16l-1.58-2.62h-.68V91.8h-1.13Zm1.13,2.6h1c.66,0,1.24-.1,1.24-.9s-.65-.84-1.23-.84h-1Z"/><path class="cls-5" d="M220.56,75.21a8.52,8.52,0,0,1-13.93,0,15.11,15.11,0,0,1-2.29-8.76,15.3,15.3,0,0,1,2.29-8.79,8.57,8.57,0,0,1,13.93,0,15.37,15.37,0,0,1,2.29,8.79A15.18,15.18,0,0,1,220.56,75.21ZM217.71,60a4.6,4.6,0,0,0-8.23,0,13.14,13.14,0,0,0-1.39,6.5,13.09,13.09,0,0,0,1.39,6.5,4.59,4.59,0,0,0,8.23,0,13.2,13.2,0,0,0,1.39-6.5A13.26,13.26,0,0,0,217.71,60Z"/><path class="cls-5" d="M236.11,78.46V66.52c0-2.26-1.25-3.38-3.75-3.38a8.6,8.6,0,0,0-3.28.53V78.46h-3.62v-17a18,18,0,0,1,6.87-1.26q7.42,0,7.43,6V78.46Z"/><path class="cls-5" d="M243,78.46v-26h3.65v26Z"/><path class="cls-5" d="M253.35,56.74a2.15,2.15,0,0,1-1.52.59,2.17,2.17,0,0,1-1.53-.59,2,2,0,0,1-.63-1.46,1.92,1.92,0,0,1,.63-1.46,2.14,2.14,0,0,1,1.53-.6,2.11,2.11,0,0,1,1.52.6,1.92,1.92,0,0,1,.63,1.46A2,2,0,0,1,253.35,56.74ZM250,78.46V60.58h3.65V78.46Z"/><path class="cls-5" d="M267.55,78.46V66.52c0-2.26-1.25-3.38-3.75-3.38a8.56,8.56,0,0,0-3.28.53V78.46H256.9v-17a18,18,0,0,1,6.87-1.26q7.43,0,7.43,6V78.46Z"/><path class="cls-5" d="M289.1,69.44,277.23,71.1c.38,3.22,2.2,4.84,5.47,4.84a10.22,10.22,0,0,0,4.94-1.1l1.07,2.72a13.53,13.53,0,0,1-6.24,1.26A8.41,8.41,0,0,1,276,76.3a9.59,9.59,0,0,1-2.29-6.8,10,10,0,0,1,2.16-6.7,7.33,7.33,0,0,1,5.9-2.58,7.12,7.12,0,0,1,5.44,2.12,8.13,8.13,0,0,1,2,5.74C289.14,68.67,289.13,69.13,289.1,69.44Zm-3.44-1.93c0-3.09-1.35-4.64-4-4.64a4,4,0,0,0-3.35,1.53A6.62,6.62,0,0,0,277,68.71Z"/></svg>