<svg id="Layer_1" data-name="Layer 1" xmlns="http://www.w3.org/2000/svg" viewBox="0 0 353 128"><defs><style>.cls-1{fill:#0e69af;}.cls-2{fill:#0db04b;}.cls-3{fill:#f27226;}.cls-4{fill:#1068b0;}</style></defs><path class="cls-1" d="M149.75,88.92a5.33,5.33,0,1,1,5.33,5.33,5.33,5.33,0,0,1-5.33-5.33m9.36,0a4,4,0,1,0-4,4.29,4.1,4.1,0,0,0,4-4.29m-6.08-3h2.24c1.45,0,2.23.5,2.23,1.77a1.5,1.5,0,0,1-1.58,1.62l1.62,2.64h-1.15l-1.56-2.6h-.68v2.6H153Zm1.12,2.58h1c.66,0,1.24-.09,1.24-.9s-.65-.83-1.23-.83h-1Z"/><path class="cls-2" d="M131.58,32.39a18.75,18.75,0,0,0-17.37,12.45c-.14.38-.62,1.91-.62,1.91l-11,47.5h25.19c8.66,0,16-6.24,18.06-14.66h0l10.9-47.21Z"/><path class="cls-3" d="M89.63,18.64A18.52,18.52,0,0,0,71.87,32.15c-.16.59-.3,1.18-.41,1.78L54.36,108H79.53A18.53,18.53,0,0,0,97.44,94h0l17.38-75.32Z"/><path class="cls-1" d="M41.36,32.39A18.79,18.79,0,0,0,23.71,45.64c-.06.18-.11.35-.17.52l-.42,1.66L12.4,94.25H38.21A18.16,18.16,0,0,0,55.11,82l1-4.42L66.55,32.39Z"/><path class="cls-4" d="M182.8,77.05a8.52,8.52,0,0,1-5.8,1.88,12.33,12.33,0,0,1-5.84-1.23l1.27-3.18a9.06,9.06,0,0,0,4.44,1.14,4.84,4.84,0,0,0,3.14-.94,3.08,3.08,0,0,0,1.2-2.56q0-2.2-3.76-3.86a14.89,14.89,0,0,1-4-2.47,5.83,5.83,0,0,1-2-4.47,6.15,6.15,0,0,1,2-4.83,7.83,7.83,0,0,1,5.39-1.79A10.11,10.11,0,0,1,184.13,56L183,59a8.06,8.06,0,0,0-4-1.07,4.31,4.31,0,0,0-2.83.88,2.93,2.93,0,0,0-1.07,2.4q0,2.13,4,4a14.93,14.93,0,0,1,4,2.4A5.9,5.9,0,0,1,184.94,72,6.37,6.37,0,0,1,182.8,77.05Z"/><path class="cls-4" d="M196.65,69.27v9.31H193V69.27L185.75,55.1h4l5.09,10.48h.06l5.06-10.48h4Z"/><path class="cls-4" d="M219.6,78.58,210,63a21.41,21.41,0,0,1-1.37-2.66h-.06c0,1,.06,2,.06,3V78.58h-3.17V55.1h3.34l9.4,15.27A22.36,22.36,0,0,1,219.6,73h.07c0-1-.07-2-.07-3V55.1h3.18V78.58Z"/><path class="cls-4" d="M240.39,78.58,230.79,63a21.37,21.37,0,0,1-1.36-2.66h-.07c0,1,.07,2,.07,3V78.58h-3.18V55.1h3.34L239,70.37a22.38,22.38,0,0,1,1.4,2.63h.06c0-1-.06-2-.06-3V55.1h3.18V78.58Z"/><path class="cls-4" d="M247,78.58V55.1h12.32v3.08h-8.72v6.91h7.94v3h-7.94v7.4h8.72v3.08Z"/><path class="cls-4" d="M274.31,78.58l-5-9.24h-.06l-5.06,9.24h-4l6.94-12.16L260.62,55.1h4l4.61,8.4h.06l4.57-8.4h4l-6.45,11.32,6.94,12.16Z"/><path class="cls-4" d="M290.71,58.18v6.91h7.79v3h-7.79V78.58h-3.6V55.1h12.13v3.08Z"/><path class="cls-4" d="M314.51,67.26a10.23,10.23,0,0,1-6.77,2,15,15,0,0,1-2.47-.19v9.47h-3.6V56a15.43,15.43,0,0,1,6.49-1.24,9.57,9.57,0,0,1,6.45,2,6.73,6.73,0,0,1,2.24,5.35A6.4,6.4,0,0,1,314.51,67.26Zm-6.32-9.69a8,8,0,0,0-2.92.48v8.24a13.66,13.66,0,0,0,2.34.16,6.43,6.43,0,0,0,4.18-1.2A3.85,3.85,0,0,0,313.25,62Q313.25,57.57,308.19,57.57Z"/><path class="cls-4" d="M326.93,58.18v20.4h-3.66V58.18h-5.42V55.1h14.47v3.08Z"/></svg>