<?xml version="1.0" encoding="utf-8"?>
<!-- Generator: Adobe Illustrator 28.0.0, SVG Export Plug-In . SVG Version: 6.00 Build 0)  -->
<svg version="1.1" id="Layer_1" xmlns="http://www.w3.org/2000/svg" xmlns:xlink="http://www.w3.org/1999/xlink" x="0px" y="0px"
	 viewBox="0 0 1640 865" style="enable-background:new 0 0 1640 865;" xml:space="preserve">
<style type="text/css">
	.st0{fill:#F36F21;}
	.st1{fill:#0066B3;}
	.st2{fill:#0DB14B;}
	.st3{fill:#FFFFFF;}
</style>
<g>
	<g>
		<path class="st0" d="M734.5,101.3h183.9L790.6,655.1c-14.7,63.6-71.3,108.6-136.5,108.6H470.1L598,209.9
			C612.7,146.3,669.3,101.3,734.5,101.3"/>
		<path class="st1" d="M159.1,661.8H343c65.2,0,121.9-45,136.5-108.6l80.8-350H376.4c-65.2,0-121.9,45-136.5,108.6L159.1,661.8
			L159.1,661.8z"/>
		<path class="st2" d="M827.9,661.8h183.9c65.2,0,121.9-45,136.5-108.6l80.8-350h-183.9c-65.2,0-121.9,45-136.5,108.6L827.9,661.8
			L827.9,661.8z"/>
		<path class="st3" d="M275.9,368.1l-41.3,179.1c29.8,0,55.7-20.6,62.4-49.7l9.1-39.5h81.7c30.6,0,57.2-21.1,64.1-50.9h-134
			l8.8-38.2h112.3c30.6,0,57.2-21.1,64.1-50.9H339C308.8,317.9,282.6,338.7,275.9,368.1"/>
		<path class="st3" d="M821.5,364.7c5.5-24-12.7-46.8-37.2-46.8H619.4l-52.9,229.3c30,0,56-20.7,62.7-49.9l9.1-39.3h111.7
			c29.3,0,54.7-20.2,61.3-48.7L821.5,364.7L821.5,364.7z M760.4,407H650l8.8-38.2h110.4L760.4,407L760.4,407z"/>
		<path class="st3" d="M1116.2,317.9h-173l-0.9,4.1c-5.5,24,12.7,46.9,37.3,46.9h36.6L975,547.2h2.6c28.7,0,53.7-19.8,60.1-47.8
			l30.1-130.5h84.4l1-4.5C1158.7,340.6,1140.6,317.8,1116.2,317.9"/>
	</g>
	<g>
		<path class="st1" d="M1216.5,585.3c-21.1,0-38.2,17.1-38.2,38.2s17.1,38.2,38.2,38.2s38.2-17.1,38.2-38.2
			S1237.6,585.3,1216.5,585.3 M1216.5,652.1c-15.8,0-28.7-12.8-28.7-28.7s12.8-28.7,28.7-28.7c15.8,0,28.7,12.8,28.7,28.7
			S1232.3,652.1,1216.5,652.1"/>
		<path class="st1" d="M1218,628.6h-6.3v14h-7.9v-38.2h14.2c4.5,0,8,1,10.4,3c2.5,2,3.7,4.9,3.7,8.5c0,2.6-0.6,4.8-1.7,6.5
			c-1.1,1.7-2.8,3.1-5.1,4.2l8.3,15.6v0.4h-8.5L1218,628.6L1218,628.6z M1211.7,622.2h6.3c2,0,3.5-0.5,4.6-1.5
			c1.1-1,1.6-2.4,1.6-4.2s-0.5-3.2-1.5-4.3c-1-1-2.6-1.5-4.7-1.5h-6.3L1211.7,622.2L1211.7,622.2z"/>
	</g>
	<g>
		<path class="st1" d="M1346.8,545.1V371.6h27.1v173.5H1346.8z"/>
		<path class="st1" d="M1475.9,533.9c-10.7,9.3-25,13.9-42.9,13.9c-17.9,0-31.8-3-43.1-9.1l9.3-23.5c10.2,5.6,21.2,8.4,32.8,8.4
			c9.7,0,17.5-2.3,23.2-7c5.9-4.6,8.9-10.9,8.9-18.9c0-10.9-9.3-20.4-27.8-28.5c-13.7-6.2-23.7-12.3-29.9-18.2
			c-9.7-8.9-14.6-20-14.6-33.1c0-14.9,5-26.8,15.1-35.7c9.9-8.8,23.2-13.2,39.8-13.2c16.6,0,29,3,39.1,9.1l-8.6,22
			c-9.4-5.3-19.2-7.9-29.5-7.9c-8.6,0-15.6,2.2-20.9,6.5s-7.9,10.2-7.9,17.7c0,10.5,9.7,20.3,29.2,29.2
			c13.6,6.2,23.3,12.1,29.2,17.7c9.6,8.9,14.4,20,14.4,33.1C1491.8,512.1,1486.5,524.6,1475.9,533.9L1475.9,533.9z"/>
	</g>
</g>
</svg>
